{
	"asset":{
		"generator":"Khronos glTF Blender I/O v4.2.69",
		"version":"2.0"
	},
	"extensionsUsed":[
		"KHR_texture_transform"
	],
	"extensionsRequired":[
		"KHR_texture_transform"
	],
	"scene":0,
	"scenes":[
		{
			"name":"Scene",
			"nodes":[
				0,
				1
			]
		}
	],
	"nodes":[
		{
			"mesh":0,
			"name":"PhoneBody",
			"rotation":[
				0,
				0.7071068286895752,
				-0.7071068286895752,
				5.338508302088485e-08
			],
			"scale":[
				0.009999999776482582,
				0.009999999776482582,
				0.009999999776482582
			]
		},
		{
			"mesh":1,
			"name":"Screen",
			"rotation":[
				0,
				0.7071068286895752,
				-0.7071068286895752,
				5.338508302088485e-08
			],
			"scale":[
				0.009999999776482582,
				0.009999999776482582,
				0.009999999776482582
			],
			"translation":[
				0,
				0,
				-0.007656333036720753
			]
		}
	],
	"materials":[
		{
			"doubleSided":true,
			"name":"Material.001"
		},
		{
			"doubleSided":true,
			"name":"Material.002",
			"pbrMetallicRoughness":{
				"baseColorTexture":{
					"extensions":{
						"KHR_texture_transform":{
							"offset":[
								0.004999999888241291,
								2
							],
							"scale":[
								1,
								-1
							]
						}
					},
					"index":0
				},
				"metallicFactor":0,
				"roughnessFactor":0.25
			}
		}
	],
	"meshes":[
		{
			"name":"PhoneBody",
			"primitives":[
				{
					"attributes":{
						"POSITION":0,
						"NORMAL":1,
						"TEXCOORD_0":2
					},
					"indices":3,
					"material":0
				}
			]
		},
		{
			"name":"Screen",
			"primitives":[
				{
					"attributes":{
						"POSITION":4,
						"NORMAL":5,
						"TEXCOORD_0":6
					},
					"indices":7,
					"material":1
				}
			]
		}
	],
	"textures":[
		{
			"sampler":0,
			"source":0
		}
	],
	"images":[
		{
			"mimeType":"image/png",
			"name":"375",
			"uri":"375.png"
		}
	],
	"accessors":[
		{
			"bufferView":0,
			"componentType":5126,
			"count":7080,
			"max":[
				3.75,
				0.12000000476837158,
				8.119999885559082
			],
			"min":[
				-3.75,
				-0.6700000166893005,
				-8.119999885559082
			],
			"type":"VEC3"
		},
		{
			"bufferView":1,
			"componentType":5126,
			"count":7080,
			"type":"VEC3"
		},
		{
			"bufferView":2,
			"componentType":5126,
			"count":7080,
			"type":"VEC2"
		},
		{
			"bufferView":3,
			"componentType":5123,
			"count":37284,
			"type":"SCALAR"
		},
		{
			"bufferView":4,
			"componentType":5126,
			"count":288,
			"max":[
				3.630000114440918,
				-1.3609685897827148,
				8
			],
			"min":[
				-3.630000114440918,
				-1.3764469623565674,
				-8
			],
			"type":"VEC3"
		},
		{
			"bufferView":5,
			"componentType":5126,
			"count":288,
			"type":"VEC3"
		},
		{
			"bufferView":6,
			"componentType":5126,
			"count":288,
			"type":"VEC2"
		},
		{
			"bufferView":7,
			"componentType":5123,
			"count":852,
			"type":"SCALAR"
		}
	],
	"bufferViews":[
		{
			"buffer":0,
			"byteLength":84960,
			"byteOffset":0,
			"target":34962
		},
		{
			"buffer":0,
			"byteLength":84960,
			"byteOffset":84960,
			"target":34962
		},
		{
			"buffer":0,
			"byteLength":56640,
			"byteOffset":169920,
			"target":34962
		},
		{
			"buffer":0,
			"byteLength":74568,
			"byteOffset":226560,
			"target":34963
		},
		{
			"buffer":0,
			"byteLength":3456,
			"byteOffset":301128,
			"target":34962
		},
		{
			"buffer":0,
			"byteLength":3456,
			"byteOffset":304584,
			"target":34962
		},
		{
			"buffer":0,
			"byteLength":2304,
			"byteOffset":308040,
			"target":34962
		},
		{
			"buffer":0,
			"byteLength":1704,
			"byteOffset":310344,
			"target":34963
		}
	],
	"samplers":[
		{
			"magFilter":9729,
			"minFilter":9987
		}
	],
	"buffers":[
		{
			"byteLength":312048,
			"uri":"phone-model.bin"
		}
	]
}
